<?xml version="1.0" standalone="no"?><!DOCTYPE svg PUBLIC "-//W3C//DTD SVG 1.1//EN" "http://www.w3.org/Graphics/SVG/1.1/DTD/svg11.dtd"><svg t="1586343410144" class="icon" viewBox="0 0 1024 1024" version="1.1" xmlns="http://www.w3.org/2000/svg" p-id="1180" width="50" height="50" xmlns:xlink="http://www.w3.org/1999/xlink"><defs><style type="text/css"></style></defs><path d="M698.2 562.7c137.7 0 249.4-111.6 249.4-249.4 0-31.60000001-6.1-61.69999999-16.8-89.5l-140 140c-14.5 14.5-38 14.5-52.5 0l-78.9-77.7c-14.5-14.5-14.5-38 0-52.5L804.9 88.2C772.5 72.9 736.4 64 698.2 64c-137.7 0-249.4 111.6-249.4 249.40000001 0 137.7 111.7 249.3 249.4 249.29999999z m-420.39999999 375.6c-29 29-76 28.99999999-104.90000001 0l-74.7-74.7c-29-29-28.99999999-76 0-104.99999999l301.3-299.00000001c10.6-10.6 22.1-15.7 33.7-16.6 14.5 32.5 34.8 63.1 61.5 89.79999999 29.7 29.7 64.2 51.8 100.9 66.40000001 0.7 13.9-4 27.60000001-16.4 40.1l-301.39999999 299z m-86.1-86.1c20.7 20.7 54.2 20.7 74.79999999 0 20.7-20.7 20.7-54.2 0-74.9-20.7-20.7-54.2-20.7-74.8-1e-8-20.7 20.7-20.7 54.3 1e-8 74.90000001z" p-id="1181"></path></svg>