<?xml version="1.0" standalone="no"?><!DOCTYPE svg PUBLIC "-//W3C//DTD SVG 1.1//EN" "http://www.w3.org/Graphics/SVG/1.1/DTD/svg11.dtd"><svg t="1586356651862" class="icon" viewBox="0 0 1065 1024" version="1.1" xmlns="http://www.w3.org/2000/svg" p-id="1545" xmlns:xlink="http://www.w3.org/1999/xlink" width="52.001953125" height="50"><defs><style type="text/css"></style></defs><path d="M946.06181931 440.17296914c42.66121372-40.93485342 19.85843491-113.0077337-38.58361469-121.96785938l-179.5520245-27.53702956a71.35268033 71.35268033 0 0 1-53.41124707-39.44149915L595.39892874 87.70958034c-25.74712271-53.21001435-101.34686069-53.79252814-127.95186786-0.98497842l-81.65788357 162.26724299a71.32090704 71.32090704 0 0 1-54.01494279 38.59420605l-179.94389858 24.71977963c-58.56914356 8.04928601-82.49458612 79.7620655-40.4794336 121.36416285l129.08512216 127.80359198a71.33149841 71.33149841 0 0 1 20.02789352 63.29280294l-32.11241307 178.75768744c-10.44288858 58.18786166 50.37158167 103.10499427 102.91435289 76.00220261l161.44113264-83.27833264a71.33149841 71.33149841 0 0 1 66.38542355 0.51896723l160.12782752 85.78843862c52.10853333 27.9394942 113.62202078-16.00325051 104.08997269-74.34998025l-29.31634589-179.27665466a71.33149841 71.33149841 0 0 1 21.0022814-62.97506846z m-145.40610801-40.17228964l-321.97142395 258.83748824a18.00498065 18.00498065 0 0 1-25.29170205-2.74311198l-3.74927317-4.6707042a17.62369876 17.62369876 0 0 1-3.37858181-7.50913605l-104.6936684-130.27133249a17.14709619 17.14709619 0 0 1 2.61601803-24.03135461l4.43769819-3.55863098a17.14709619 17.14709619 0 0 1 24.03135379 2.61601721l98.4236987 122.43387057L774.35784808 367.31634317a18.00498065 18.00498065 0 0 1 25.29170288 2.75370337l3.74927234 4.66011283a18.00498065 18.00498065 0 0 1-2.743112 25.27052013z" p-id="1546"></path></svg>