<?xml version="1.0" standalone="no"?><!DOCTYPE svg PUBLIC "-//W3C//DTD SVG 1.1//EN" "http://www.w3.org/Graphics/SVG/1.1/DTD/svg11.dtd"><svg t="1586356437402" class="icon" viewBox="0 0 1024 1024" version="1.1" xmlns="http://www.w3.org/2000/svg" p-id="1797" xmlns:xlink="http://www.w3.org/1999/xlink" width="50" height="50"><defs><style type="text/css"></style></defs><path d="M860.04976138 208.66838877c-11.1570249-8.36776868-25.10330603-13.94628113-37.65495904-13.94628113h-4.18388434c-1.39462811 0-9.76239679 1.39462811-23.70867709 1.3946281-23.70867792 0-69.73140481-1.39462811-112.96487631-11.1570249-55.78512368-13.94628113-119.93801688-72.52066103-139.46280964-83.67768594C532.31215817 92.91425623 521.15513327 90.125 511.39273647 90.125s-22.31404981 2.78925622-32.07644658 8.36776868c-2.78925622 1.39462811-69.73140481 69.73140481-136.67355341 85.07231405-43.23347067 9.76239679-90.65082651 11.1570249-114.35950442 11.15702491-13.94628113 0-22.31404981-1.39462811-25.1033052-1.39462812H200.39067062c-13.94628113 0-27.89256226 5.57851245-39.04958715 13.94628112-11.1570249 11.1570249-16.73553735 25.10330603-16.73553736 40.44421446v132.48966989c0 486.72520643 341.68388434 549.48347067 355.63016547 552.2727269 2.78925622 1.39462811 6.97314056 1.39462811 9.76239679 1.39462811 2.78925622 0 6.97314056 0 9.76239679-1.39462811 13.94628113-2.78925622 358.41942169-65.54752048 358.41942169-552.2727269v-132.48966989c0-15.34090925-5.57851245-29.28719036-18.13016547-39.04958633zM472.34314932 688.42045462c-72.52066103-15.34090925-129.70041284-71.12603293-145.04132207-140.85743774h145.04132207v140.85743774z m0-216.16735584H328.69645535c15.34090925-68.33677671 72.52066103-122.7272731 143.64669397-136.6735534v136.6735534z m78.0991735-138.06818151c71.12603293 15.34090925 126.91115662 68.33677671 143.64669479 136.6735534H550.44232282v-136.6735534z m0 354.23553735V547.56301688h145.0413229c-15.34090925 69.73140481-72.52066103 125.51652933-145.0413229 140.85743774z"  p-id="1798"></path></svg>