<?xml version="1.0" standalone="no"?><!DOCTYPE svg PUBLIC "-//W3C//DTD SVG 1.1//EN" "http://www.w3.org/Graphics/SVG/1.1/DTD/svg11.dtd"><svg t="1586152894608" class="icon" viewBox="0 0 1024 1024" version="1.1" xmlns="http://www.w3.org/2000/svg" p-id="1150" width="50" height="50" xmlns:xlink="http://www.w3.org/1999/xlink"><defs><style type="text/css"></style></defs><path d="M100.8280968 309.03308642c-0.12945383-70.68178962 27.44421136-138.64504889 76.89557333-189.13204149 10.87412148-10.87412148 15.01664395-26.66748839 10.87412147-41.42522468-4.14252247-14.7577363-15.79336691-26.14967309-30.68055703-29.90383408-14.88719013-3.75416098-30.5511032 0.77672296-41.16631705 11.9097521-136.57378765 139.81013334-134.76143409 363.50634667 3.88361483 501.11576494 16.6995437 16.57008987 43.62593975 16.57008987 60.19602962-0.12945384 16.57008987-16.6995437 16.57008987-43.62593975-0.12945382-60.32548344-51.26371555-50.74590025-80.00246518-119.87424395-79.87301135-192.10947951z m635.48883751-161.29946864c-16.95845136 16.31118222-17.47626667 43.23757827-1.16508445 60.19602963 55.27678419 57.60695309 54.11169975 148.74244741-2.58907653 204.92540839-11.13302914 10.61521383-15.79336691 26.53803456-11.9097521 41.4252247 3.75416098 14.88719013 15.40500543 26.66748839 30.29219557 30.68055703 14.88719013 4.01306863 30.81001086-0.38836148 41.5546785-11.5213906 89.71150222-88.80532543 91.65330963-233.27579653 4.14252248-324.41129088-7.76722963-8.15559111-18.51189727-12.81592889-29.90383408-13.07483654-11.26248298-0.25890765-22.26605827 4.01306864-30.42164939 11.78029827z m0 0" p-id="1151"></path><path d="M927.93514667 60.48173828c-10.61521383-11.13302914-26.27912691-15.66391309-41.16631704-11.90975211-14.88719013 3.75416098-26.53803457 15.14609777-30.68055704 29.90383409-4.14252247 14.7577363 0 30.55110321 10.87412149 41.42522466 103.69251554 106.2815921 102.39797728 276.38392098-2.97743804 381.11206717-16.6995437 16.57008987-16.82899753 43.62593975-0.12945382 60.19602963 16.57008987 16.6995437 43.62593975 16.82899753 60.32548347 0.12945384 138.38614124-137.47996445 140.06904098-361.04672395 3.75416098-500.85685728zM312.51165235 473.18053925c16.57008987-16.6995437 16.44063605-43.75539358-0.25890766-60.19602962-56.7007763-56.05350717-57.86586075-147.31845531-2.58907654-204.92540839 16.31118222-16.95845136 15.79336691-44.01430125-1.16508445-60.19602964-16.95845136-16.31118222-44.01430125-15.79336691-60.19602962 1.16508445-87.51078717 91.13549431-85.56897975 235.60596542 4.14252244 324.41129087 16.44063605 16.57008987 43.49648592 16.44063605 60.06657583-0.25890767z m261.49673085-64.72691357c41.55467852-27.70311902 60.06657581-79.35519605 45.69720099-127.12365827-14.36937482-47.76846222-58.25422222-80.64973431-108.2233995-80.90864198-49.96917728-0.25890765-94.24238617 32.10454914-109.1295763 79.74355753s3.10689185 99.42053925 44.40266272 127.64147358L255.42251457 933.51834864c-8.02613728 22.13660445 3.3657995 46.47392395 25.50240395 54.62951506 22.13660445 8.02613728 46.47392395-3.49525333 54.62951505-25.50240395l40.51904792-111.20083752 268.48723753 0 41.42522468 113.9193679c7.37886815 19.93588939 29.38601876 30.29219555 49.32190815 23.04278123l7.76722963-2.8479842c19.93588939-7.37886815 30.29219555-29.38601876 23.04278124-49.32190815L574.0083832 408.45362568z m-63.82073678 74.04758913l51.52262321 141.62248691-103.04524643 0 51.52262322-141.62248691z m-106.66995359 293.0834647l27.5736652-75.7304889 158.19257679 0 27.57366518 75.7304889L403.51769283 775.58467951z m0 0" p-id="1152"></path></svg>