<?xml version="1.0" standalone="no"?><!DOCTYPE svg PUBLIC "-//W3C//DTD SVG 1.1//EN" "http://www.w3.org/Graphics/SVG/1.1/DTD/svg11.dtd"><svg t="1585576469839" class="icon" viewBox="0 0 1024 1024" version="1.1" xmlns="http://www.w3.org/2000/svg" p-id="2142" xmlns:xlink="http://www.w3.org/1999/xlink" width="16" height="16"><defs><style type="text/css"></style></defs><path d="M511.999 225.386C177.707 225.386 2.441 472.773 2.441 512c0 39.226 175.264 286.614 509.558 286.614 334.273 0 509.558-247.388 509.558-286.614 0-39.227-175.285-286.614-509.558-286.614z m0 507.089c-125.087 0-226.477-98.71-226.477-220.475 0-121.787 101.39-220.475 226.477-220.475 125.088 0 226.477 98.69 226.477 220.475 0 121.765-101.39 220.475-226.477 220.475z m0-220.475c-20.754-22.889 33.796-110.258 0-110.258-62.554 0-113.228 49.387-113.228 110.258 0 60.871 50.673 110.217 113.228 110.217 62.513 0 113.23-49.345 113.23-110.217 0-27.989-95.585 19.427-113.23 0z" p-id="2143"></path></svg>