<?xml version="1.0" standalone="no"?><!DOCTYPE svg PUBLIC "-//W3C//DTD SVG 1.1//EN" "http://www.w3.org/Graphics/SVG/1.1/DTD/svg11.dtd"><svg t="1586343512180" class="icon" viewBox="0 0 1024 1024" version="1.1" xmlns="http://www.w3.org/2000/svg" p-id="2221" xmlns:xlink="http://www.w3.org/1999/xlink" width="50" height="50"><defs><style type="text/css"></style></defs><path d="M993.6896 676.2496 964.3008 548.864c-8.9088-28.4672-25.8048-47.7184-59.5968-47.7184l-98.304 0L806.4 86.3232c0-10.24-8.2944-18.432-18.432-18.432s-18.432 8.2944-18.432 18.432l0 414.8224L113.9712 501.1456c-43.6224 0-49.152 41.0624-49.152 41.0624L46.08 626.2784 24.9856 750.4896c-1.8432 24.6784-1.2288 39.6288-1.2288 39.6288l0 37.5808c0 22.6304 18.432 41.0624 41.0624 41.0624l852.7872 0 46.6944 0c22.6304 0 41.0624-18.432 41.0624-41.0624l0-39.3216C1004.4416 726.1184 993.6896 676.2496 993.6896 676.2496zM276.3776 567.0912c13.312 0 24.1664 10.8544 24.1664 24.1664 0 13.312-10.8544 24.1664-24.1664 24.1664-13.312 0-24.1664-10.8544-24.1664-24.1664C252.2112 577.9456 262.9632 567.0912 276.3776 567.0912zM177.5616 567.0912c13.312 0 24.1664 10.8544 24.1664 24.1664 0 13.312-10.8544 24.1664-24.1664 24.1664-13.312 0-24.1664-10.8544-24.1664-24.1664C153.3952 577.9456 164.2496 567.0912 177.5616 567.0912zM932.5568 768.4096 105.472 768.4096c-10.24 0-18.432-8.2944-18.432-18.432s8.2944-18.432 18.432-18.432l827.0848 0c10.24 0 18.432 8.2944 18.432 18.432S942.7968 768.4096 932.5568 768.4096z" p-id="2222"></path></svg>