<?xml version="1.0" standalone="no"?><!DOCTYPE svg PUBLIC "-//W3C//DTD SVG 1.1//EN" "http://www.w3.org/Graphics/SVG/1.1/DTD/svg11.dtd"><svg t="1586350636393" class="icon" viewBox="0 0 1024 1024" version="1.1" xmlns="http://www.w3.org/2000/svg" p-id="1393" xmlns:xlink="http://www.w3.org/1999/xlink" width="50" height="50"><defs><style type="text/css"></style></defs><path d="M462.48333294 831.74999961h-189.49999922c-32.10000029 0-58.34999971-27.69999961-58.35000059-61.54999981V249.2c0-33.8000001 26.25000029-61.49999971 58.30000049-61.49999971h431.64999932c32.0500002 0 58.29999961 27.69999961 58.30000049 61.49999971v274.20000029c0 17.25000029 17.2000002 28.7499999 33.5499996 28.7499999 16.35000029 0 36.9-11.49999961 36.9-28.7499999v-288.5000001c0-67.65000029-52.49999971-123.00000029-116.64999931-123.00000029H249.98333362C185.83333314 111.8499998 133.33333343 167.19999981 133.33333343 234.8500001v553.8999999c0 67.65000029 52.49999971 123.05000039 116.65000019 123.05000039h212.49999932c16.35000029 0 28.35-24.00000029 28.35-41.25000058s-11.99999971-38.85000029-28.35-38.84999942z"  p-id="1394"></path><path d="M649.98333351 311.99999961H316.68333294C297.98333333 311.99999961 283.33333372 328.50000019 283.33333372 349.4999999s14.64999961 37.50000029 33.34999922 37.50000029h333.30000059c18.69999961 0 33.3500001-16.49999971 33.35000009-37.50000029S668.68333313 311.99999961 649.98333351 311.99999961zM683.33333362 522.50000029c0-20.99999971-14.64999961-37.50000029-33.35000009-37.50000029H316.68333294c-18.69999961 0-33.3500001 16.49999971-33.34999922 37.50000029s14.64999961 37.50000029 33.34999922 37.49999942h333.30000059c18.69999961 0 33.3500001-16.49999971 33.35000009-37.49999942zM316.68333294 658.09999971c-18.69999961 0-33.3500001 16.49999971-33.34999922 37.50000029s14.64999961 37.50000029 33.34999922 37.50000029h83.30000011c18.69999961 0 33.3500001-16.49999971 33.35000009-37.50000029s-14.64999961-37.50000029-33.35000009-37.50000029H316.68333294zM924.48333353 572.00000029c-12.15-13.34999971-40.39999981-13.34999971-52.50000059 0l-221.49999932 239.29999981-102.50000068-106.94999971c-12.0999999-13.34999971-42.54999961-11.7-55.49999941 0-12.2000001 13.34999971-12.2000001 44.6000001 0 57.19999922l122.64999961 134.80000049c17.9499999 19.0000002 37.10000039 19.0000002 49.8499998 9.15000029l259.50000059-285.05000039c11.49999961-13.34999971 12.0999999-35.1 0-48.44999971z"  p-id="1395"></path></svg>